<svg width="33" height="33" viewBox="0 0 33 33" fill="none" xmlns="http://www.w3.org/2000/svg">
<rect width="33" height="33" rx="3" fill="#DEAA40"/>
<path d="M23.375 17.875H9.625L6.47212 21.0279C5.60587 21.8941 6.21913 23.375 7.44425 23.375H9.625H23.375C24.1043 23.375 24.8038 23.6647 25.3195 24.1805C25.8353 24.6962 26.125 25.3957 26.125 26.125C26.125 26.8543 25.8353 27.5538 25.3195 28.0695C24.8038 28.5853 24.1043 28.875 23.375 28.875C22.6457 28.875 21.9462 28.5853 21.4305 28.0695C20.9147 27.5538 20.625 26.8543 20.625 26.125C20.625 25.3957 20.9147 24.6962 21.4305 24.1805C21.9462 23.6647 22.6457 23.375 23.375 23.375H9.625C10.3543 23.375 11.0538 23.6647 11.5695 24.1805C12.0853 24.6962 12.375 25.3957 12.375 26.125C12.375 26.8543 12.0853 27.5538 11.5695 28.0695C11.0538 28.5853 10.3543 28.875 9.625 28.875C8.89565 28.875 8.19618 28.5853 7.68046 28.0695C7.16473 27.5538 6.875 26.8543 6.875 26.125C6.875 25.3957 7.16473 24.6962 7.68046 24.1805C8.19618 23.6647 8.89565 23.375 9.625 23.375H7.44425C6.21913 23.375 5.60587 21.8941 6.47212 21.0279L9.625 17.875L7.425 6.875H28.875L23.375 17.875Z" fill="white"/>
<path d="M4.125 4.125H6.875L7.425 6.875M7.425 6.875H28.875L23.375 17.875H9.625M7.425 6.875L9.625 17.875M9.625 17.875L6.47212 21.0279C5.60587 21.8941 6.21913 23.375 7.44425 23.375H23.375M23.375 23.375C22.6457 23.375 21.9462 23.6647 21.4305 24.1805C20.9147 24.6962 20.625 25.3957 20.625 26.125C20.625 26.8543 20.9147 27.5538 21.4305 28.0695C21.9462 28.5853 22.6457 28.875 23.375 28.875C24.1043 28.875 24.8038 28.5853 25.3195 28.0695C25.8353 27.5538 26.125 26.8543 26.125 26.125C26.125 25.3957 25.8353 24.6962 25.3195 24.1805C24.8038 23.6647 24.1043 23.375 23.375 23.375ZM12.375 26.125C12.375 26.8543 12.0853 27.5538 11.5695 28.0695C11.0538 28.5853 10.3543 28.875 9.625 28.875C8.89565 28.875 8.19618 28.5853 7.68046 28.0695C7.16473 27.5538 6.875 26.8543 6.875 26.125C6.875 25.3957 7.16473 24.6962 7.68046 24.1805C8.19618 23.6647 8.89565 23.375 9.625 23.375C10.3543 23.375 11.0538 23.6647 11.5695 24.1805C12.0853 24.6962 12.375 25.3957 12.375 26.125Z" stroke="#3F3F46" stroke-width="2" stroke-linecap="round" stroke-linejoin="round"/>
</svg>
