<svg width="307" height="50" viewBox="0 0 307 50" fill="none" xmlns="http://www.w3.org/2000/svg">
<g clip-path="url(#clip0_1_403)">
<path d="M71.45 13.9048H62.7769L65.0391 5.49414H93.392L91.1299 13.9048H82.4568L75.9296 38.218H64.9139L71.45 13.9048Z" fill="white"/>
<path d="M95.1892 17.5526C100.751 17.5526 106.169 17.5526 103.406 27.8273C100.643 38.102 95.1982 38.218 89.6367 38.218C84.0483 38.218 78.773 38.102 81.5358 27.8273C84.2987 17.5526 89.6009 17.5526 95.1892 17.5526ZM91.1835 32.269C94.3577 32.269 95.6273 31.4752 96.6019 27.8273C97.5855 24.1794 96.7182 23.5016 93.5351 23.5016C90.4146 23.5016 89.3237 24.1794 88.3402 27.8273C87.3656 31.4752 88.063 32.269 91.1835 32.269Z" fill="white"/>
<path d="M107.841 18.3999H119.93C126.537 18.3999 126.797 22.3064 125.196 28.2465C123.596 34.2222 121.217 38.209 114.601 38.209H102.512L107.841 18.3999ZM113.59 33.1163C115.289 33.1163 117.131 32.9201 118.374 28.3089C119.617 23.6978 117.882 23.5016 116.174 23.5016H113.134L110.55 33.1252H113.59V33.1163Z" fill="white"/>
<path d="M139.976 17.5526C145.538 17.5526 150.956 17.5526 148.193 27.8273C145.43 38.102 139.985 38.218 134.424 38.218C128.835 38.218 123.56 38.102 126.323 27.8273C129.077 17.5526 134.388 17.5526 139.976 17.5526ZM135.962 32.269C139.136 32.269 140.405 31.4752 141.38 27.8273C142.364 24.1794 141.496 23.5016 138.313 23.5016C135.193 23.5016 134.102 24.1794 133.118 27.8273C132.153 31.4752 132.841 32.269 135.962 32.269Z" fill="white"/>
<path d="M204.515 39.1099H197.996L199.06 35.1587H193.266L192.202 39.1099H185.693L189.234 25.9186C190.745 20.2818 194.134 19.5594 197.979 19.5594H202.717C206.571 19.5594 209.566 20.2818 208.046 25.9186L204.515 39.1099ZM194.608 30.173H200.402L201.439 26.3022C201.752 25.1427 201.555 24.7235 200.339 24.7235H197.701C196.485 24.7235 195.958 25.1427 195.645 26.3022L194.608 30.173Z" fill="white"/>
<path d="M214.52 19.7556H221.029L219.652 24.8662H213.143L214.52 19.7556ZM212.66 26.6946H219.169L215.834 39.1099H209.325L212.66 26.6946Z" fill="white"/>
<path d="M227.02 39.1099H220.511L225.706 19.7556H232.215L231.517 22.3511C231.991 21.5216 233.958 19.3364 237.875 19.3364C241.255 19.3364 244.777 19.8626 243.222 25.6422L239.6 39.1099H233.082L236.337 26.9979C236.757 25.4192 236.256 24.7324 234.897 24.7324H233.958C232.269 24.7324 230.605 25.7581 230.069 27.7738L227.02 39.1099Z" fill="white"/>
<path d="M159.316 27.5152L156.169 39.2258H147.12L154.336 12.3528H163.385L168.481 26.4806L181.205 12.3528H190.253L183.038 39.2258H173.989L177.136 27.5152L167.176 39.2258H162.946L159.316 27.5152Z" fill="white"/>
<path d="M63.7963 19.5237C62.8485 19.711 57.5016 20.7902 57.5016 20.7902L62.7948 38.8958L0 6.3325L53.7641 25.9722L46.0299 0L57.4301 12.4509L53.6389 13.218L63.7963 19.5237Z" fill="white"/>
<path d="M243.204 19.5237C244.151 19.711 249.498 20.7902 249.498 20.7902L244.205 38.8958L307 6.3325L253.236 25.9722L260.961 0L249.561 12.4509L253.352 13.218L243.204 19.5237Z" fill="white"/>
<path d="M114.637 41.7678L114.082 43.837H109.987L109.692 44.934H113.689L113.224 46.6643H109.227L108.932 47.7613H113.027L112.473 49.8305H105.659L107.823 41.7678H114.637Z" fill="white"/>
<path d="M116.291 49.8305H113.581L115.745 41.7677H118.454L118.159 42.8469C118.356 42.4991 119.179 41.5894 120.806 41.5894C122.219 41.5894 123.676 41.8123 123.032 44.2115L121.521 49.8216H118.812L120.171 44.7734C120.35 44.1134 120.135 43.828 119.572 43.828H119.179C118.472 43.828 117.784 44.2561 117.56 45.0945L116.291 49.8305Z" fill="white"/>
<path d="M123.122 47.7524H124.669C125.464 47.7524 126.135 47.5919 126.421 46.5216L127.7 41.7678H130.409L128.862 47.5294C128.576 48.5908 127.405 49.8305 125.599 49.8305H122.559L123.122 47.7524Z" fill="white"/>
<path d="M135.935 41.5894C138.197 41.5894 140.405 41.5894 139.279 45.7724C138.152 49.9554 135.935 50 133.673 50C131.402 50 129.256 49.9554 130.373 45.7724C131.491 41.5894 133.664 41.5894 135.935 41.5894ZM134.307 47.5829C135.604 47.5829 136.114 47.2618 136.516 45.7724C136.918 44.2829 136.561 44.0064 135.273 44.0064C134.003 44.0064 133.556 44.2829 133.163 45.7724C132.752 47.2618 133.038 47.5829 134.307 47.5829Z" fill="white"/>
<path d="M139.484 49.8305L139.994 47.9308H144.474C145.198 47.9308 145.422 47.4848 145.565 46.9765L145.797 46.1024C145.153 46.5305 144.286 46.8784 143.195 46.8784C140.182 46.8784 140.262 46.2005 140.879 43.9083L141.452 41.7767H144.152L143.741 43.3107C143.437 44.4524 143.329 44.9162 144.715 44.9162C146.11 44.9162 146.325 44.1224 146.539 43.3107L146.95 41.7767H149.66L147.925 48.2251C147.666 49.1884 147.246 49.8395 145.6 49.8395H139.484V49.8305Z" fill="white"/>
<path d="M156.035 41.7678H158.744L157.921 44.8181H160.461L161.283 41.7678H163.993L161.829 49.8305H159.12L159.906 46.8962H157.367L156.58 49.8305H153.871L156.035 41.7678Z" fill="white"/>
<path d="M169.581 41.5894C171.843 41.5894 174.052 41.5894 172.925 45.7724C171.798 49.9554 169.581 50 167.319 50C165.048 50 162.902 49.9554 164.019 45.7724C165.137 41.5894 167.301 41.5894 169.581 41.5894ZM167.945 47.5829C169.241 47.5829 169.751 47.2618 170.153 45.7724C170.556 44.2829 170.198 44.0064 168.91 44.0064C167.641 44.0064 167.194 44.2829 166.8 45.7724C166.389 47.2618 166.675 47.5829 167.945 47.5829Z" fill="white"/>
<path d="M175.098 41.7678H180.248C182.081 41.7678 182.939 41.9283 182.465 43.7121C182.135 44.9429 181.375 45.487 180.579 45.594L180.561 45.6743C181.312 45.7546 181.983 46.04 181.589 47.5294C181.017 49.6522 180.15 49.8305 178.093 49.8305H172.943L175.098 41.7678ZM178.853 44.8537C179.363 44.8537 179.443 44.6486 179.524 44.3454C179.604 44.0421 179.64 43.837 179.13 43.837H177.262L176.993 44.8537H178.853ZM178.013 47.7524C178.719 47.7524 178.799 47.5294 178.898 47.1638C178.996 46.807 179.032 46.5751 178.317 46.5751H176.519L176.206 47.7524H178.013Z" fill="white"/>
<path d="M184.102 41.7678H189.252C191.085 41.7678 191.943 41.9283 191.469 43.7121C191.138 44.9429 190.378 45.487 189.583 45.594L189.556 45.6743C190.307 45.7546 190.978 46.04 190.584 47.5294C190.012 49.6522 189.145 49.8305 187.088 49.8305H181.938L184.102 41.7678ZM187.857 44.8537C188.367 44.8537 188.447 44.6486 188.528 44.3454C188.608 44.0421 188.644 43.837 188.134 43.837H186.265L185.997 44.8537H187.857ZM187.025 47.7524C187.732 47.7524 187.812 47.5294 187.911 47.1638C188.009 46.807 188.045 46.5751 187.329 46.5751H185.532L185.219 47.7524H187.025Z" fill="white"/>
<path d="M191.147 49.8305L191.657 47.9308H196.137C196.861 47.9308 197.084 47.4848 197.227 46.9765L197.46 46.1024C196.816 46.5305 195.949 46.8784 194.867 46.8784C191.854 46.8784 191.934 46.2005 192.551 43.9083L193.123 41.7767H195.815L195.403 43.3107C195.099 44.4524 194.992 44.9162 196.378 44.9162C197.773 44.9162 197.987 44.1224 198.202 43.3107L198.613 41.7767H201.323L199.588 48.2251C199.329 49.1884 198.908 49.8395 197.263 49.8395H191.147V49.8305Z" fill="white"/>
</g>
<defs>
<clipPath id="clip0_1_403">
<rect width="307" height="50" fill="white"/>
</clipPath>
</defs>
</svg>
